<svg width="64" height="64" viewBox="0 0 64 64" fill="none" xmlns="http://www.w3.org/2000/svg">
<path d="M14.5 58.5C16.9723 58.5 19.389 57.7669 21.4446 56.3934C23.5002 55.0199 25.1024 53.0676 26.0485 50.7835C26.9946 48.4995 27.2421 45.9861 26.7598 43.5614C26.2775 41.1366 25.087 38.9093 23.3388 37.1612C21.5907 35.413 19.3634 34.2225 16.9386 33.7402C14.5139 33.2579 12.0005 33.5054 9.71646 34.4515C7.43238 35.3976 5.48015 36.9998 4.10663 39.0554C2.73311 41.111 2 43.5277 2 46C2.00374 49.3141 3.3219 52.4913 5.66529 54.8347C8.00869 57.1781 11.1859 58.4963 14.5 58.5V58.5ZM14.5 37.5C16.1811 37.5 17.8245 37.9985 19.2223 38.9325C20.6202 39.8665 21.7096 41.194 22.353 42.7472C22.9963 44.3004 23.1647 46.0094 22.8367 47.6583C22.5087 49.3071 21.6992 50.8217 20.5104 52.0104C19.3217 53.1992 17.8071 54.0087 16.1583 54.3367C14.5094 54.6647 12.8004 54.4963 11.2472 53.853C9.69402 53.2096 8.3665 52.1202 7.43251 50.7224C6.49852 49.3245 6 47.6811 6 46C6.00255 43.7464 6.8989 41.5859 8.49241 39.9924C10.0859 38.3989 12.2464 37.5026 14.5 37.5Z" fill="white"/>
<path d="M37 46C37 48.4723 37.7331 50.889 39.1066 52.9446C40.4801 55.0002 42.4324 56.6024 44.7165 57.5485C47.0005 58.4946 49.5139 58.7421 51.9386 58.2598C54.3634 57.7775 56.5907 56.587 58.3388 54.8388C60.087 53.0907 61.2775 50.8634 61.7598 48.4386C62.2421 46.0139 61.9946 43.5005 61.0485 41.2165C60.1024 38.9324 58.5002 36.9801 56.4446 35.6066C54.389 34.2331 51.9723 33.5 49.5 33.5C46.1859 33.5037 43.0087 34.8219 40.6653 37.1653C38.3219 39.5087 37.0037 42.6859 37 46V46ZM49.5 37.5C51.1811 37.5 52.8245 37.9985 54.2223 38.9325C55.6202 39.8665 56.7096 41.194 57.353 42.7472C57.9963 44.3004 58.1646 46.0094 57.8367 47.6583C57.5087 49.3071 56.6992 50.8217 55.5104 52.0104C54.3217 53.1992 52.8071 54.0087 51.1583 54.3367C49.5094 54.6646 47.8004 54.4963 46.2472 53.853C44.694 53.2096 43.3665 52.1202 42.4325 50.7223C41.4985 49.3245 41 47.6811 41 46C41.0025 43.7464 41.8989 41.5859 43.4924 39.9924C45.0859 38.3989 47.2464 37.5025 49.5 37.5V37.5Z" fill="white"/>
<path d="M39.739 16.022C42.0923 16.022 44 14.1143 44 11.761C44 9.40771 42.0923 7.5 39.739 7.5C37.3857 7.5 35.478 9.40771 35.478 11.761C35.478 14.1143 37.3857 16.022 39.739 16.022Z" fill="white"/>
<path d="M23.8694 33.2874L30.0001 39.3361V50.4999H34.0001V38.918C33.9991 38.5208 33.9196 38.1277 33.7664 37.7613C33.6132 37.3948 33.3891 37.0622 33.1071 36.7825L26.6979 30.459L35.0045 22.1524L42.2751 29.5962C42.5552 29.8815 42.8891 30.1083 43.2575 30.2634C43.6259 30.4185 44.0215 30.4989 44.4212 30.4999H48.0001V26.4999H44.8424L33.2815 14.6639L33.2221 14.7219L32.1721 13.6719L18.1721 27.6719L23.8289 33.3286L23.8694 33.2874Z" fill="white"/>
</svg>